<svg xmlns="http://www.w3.org/2000/svg" width="400" height="740" viewBox="0 0 400 740">
<defs><linearGradient id="f" x1="0" y1="0" x2="0" y2="1"><stop offset="0" stop-color="#9fb6e0"/><stop offset="1" stop-color="#b9c9e8"/></linearGradient></defs><path d="M0 740 L0 330.0 L0 341.6 L8 350.2 L16 354.0 L24 354.1 L32 352.9 L40 352.7 L48 354.7 L56 358.7 L64 363.1 L72 365.2 L80 362.7 L88 354.5 L96 341.1 L104 325.0 L112 309.3 L120 297.3 L128 291.0 L136 290.8 L144 295.2 L152 301.5 L160 307.3 L168 310.8 L176 312.0 L184 312.1 L192 313.6 L200 318.4 L208 327.7 L216 340.7 L224 355.2 L232 367.9 L240 375.8 L248 377.2 L256 372.0 L264 362.1 L272 350.3 L280 339.6 L288 332.0 L296 327.9 L304 326.0 L312 324.2 L320 320.4 L328 313.5 L336 304.1 L344 294.1 L352 286.6 L360 284.2 L368 288.4 L376 298.7 L384 313.2 L392 328.5 L400 341.6 L400 740 Z" fill="url(#f)" opacity=".55"/>
</svg>
