<svg xmlns="http://www.w3.org/2000/svg" width="400" height="740" viewBox="0 0 400 740">
<defs><linearGradient id="m" x1="0" y1="0" x2="0" y2="1"><stop offset="0" stop-color="#5ea36a"/><stop offset="1" stop-color="#3c7a4c"/></linearGradient></defs><path d="M0 740 L0 430.0 L0 440.3 L8 462.2 L16 470.2 L24 466.7 L32 459.8 L40 457.0 L48 459.1 L56 459.9 L64 451.4 L72 430.6 L80 403.0 L88 379.8 L96 371.3 L104 380.1 L112 399.8 L120 419.7 L128 431.9 L136 436.4 L144 439.4 L152 448.0 L160 463.4 L168 479.0 L176 484.7 L184 474.1 L192 449.1 L200 419.7 L208 397.8 L216 389.8 L224 393.3 L232 400.2 L240 403.0 L248 400.9 L256 400.1 L264 408.6 L272 429.4 L280 457.0 L288 480.2 L296 488.7 L304 479.9 L312 460.2 L320 440.3 L328 428.1 L336 423.6 L344 420.6 L352 412.0 L360 396.6 L368 381.0 L376 375.3 L384 385.9 L392 410.9 L400 440.3 L400 740 Z" fill="url(#m)" opacity=".9"/>
</svg>
