<svg xmlns="http://www.w3.org/2000/svg" width="400" height="740" viewBox="0 0 400 740">
<defs><linearGradient id="n" x1="0" y1="0" x2="0" y2="1"><stop offset="0" stop-color="#3e7a3f"/><stop offset="1" stop-color="#234a26"/></linearGradient></defs><path d="M0 740 L0 560.0 L0 582.5 L8 590.2 L16 584.2 L24 572.0 L32 566.8 L40 574.1 L48 586.8 L56 593.8 L64 592.4 L72 589.9 L80 593.1 L88 598.6 L96 595.0 L104 575.7 L112 547.0 L120 522.8 L128 511.6 L136 509.5 L144 507.5 L152 503.6 L160 505.4 L168 520.7 L176 546.2 L184 568.9 L192 578.1 L200 575.5 L208 572.2 L216 575.9 L224 582.9 L232 584.4 L240 578.2 L248 572.6 L256 577.7 L264 592.9 L272 606.4 L280 606.7 L288 593.7 L296 577.3 L304 565.5 L312 556.0 L320 540.8 L328 517.8 L336 496.8 L344 490.5 L352 501.7 L360 520.8 L368 535.7 L376 543.6 L384 551.7 L392 566.0 L400 582.5 L400 740 Z" fill="url(#n)"/>
</svg>
