<svg xmlns="http://www.w3.org/2000/svg" width="400" height="740" viewBox="0 0 400 740">
<defs><radialGradient id="p1" cx=".5" cy=".5" r=".5"><stop offset="0" stop-color="#caa0ff"/><stop offset=".7" stop-color="#7a4fb0"/><stop offset="1" stop-color="#3a2360"/></radialGradient></defs><circle cx="300" cy="170" r="40" fill="url(#p1)" opacity=".85"/><ellipse cx="300" cy="170" rx="62" ry="13" fill="none" stroke="#d9c2ff" stroke-width="2.5" opacity=".5"/><circle cx="104.8" cy="33.0" r="0.71" fill="hsl(35,90%,80%)" opacity="0.78"/><circle cx="187.1" cy="320.1" r="0.41" fill="#fff" opacity="0.46"/><circle cx="199.5" cy="608.2" r="0.58" fill="#fff" opacity="0.42"/><circle cx="229.9" cy="382.6" r="0.37" fill="#fff" opacity="0.32"/><circle cx="192.6" cy="172.9" r="0.69" fill="hsl(35,90%,80%)" opacity="0.97"/><circle cx="234.2" cy="79.1" r="0.76" fill="#fff" opacity="0.35"/><circle cx="227.5" cy="458.6" r="0.52" fill="hsl(210,80%,85%)" opacity="0.86"/><circle cx="108.2" cy="27.5" r="0.63" fill="hsl(35,90%,80%)" opacity="0.41"/><circle cx="126.6" cy="7.6" r="0.82" fill="hsl(210,80%,85%)" opacity="0.86"/><circle cx="79.6" cy="25.7" r="0.59" fill="hsl(210,80%,85%)" opacity="0.47"/><circle cx="374.9" cy="503.2" r="0.58" fill="hsl(35,90%,80%)" opacity="0.37"/><circle cx="227.5" cy="407.3" r="1.02" fill="hsl(35,90%,80%)" opacity="0.76"/><circle cx="170.5" cy="453.2" r="0.39" fill="hsl(35,90%,80%)" opacity="0.95"/><circle cx="218.9" cy="596.2" r="0.48" fill="#fff" opacity="0.53"/><circle cx="273.0" cy="386.8" r="0.41" fill="hsl(210,80%,85%)" opacity="0.78"/><circle cx="349.3" cy="63.0" r="0.80" fill="#fff" opacity="0.90"/><circle cx="49.2" cy="394.5" r="0.78" fill="hsl(210,80%,85%)" opacity="0.57"/><circle cx="190.9" cy="338.1" r="1.01" fill="hsl(35,90%,80%)" opacity="0.78"/><circle cx="25.5" cy="162.1" r="0.99" fill="hsl(35,90%,80%)" opacity="0.33"/><circle cx="3.8" cy="641.7" r="1.02" fill="hsl(35,90%,80%)" opacity="0.47"/><circle cx="88.6" cy="380.9" r="0.39" fill="#fff" opacity="0.54"/><circle cx="17.2" cy="266.2" r="1.07" fill="hsl(210,80%,85%)" opacity="0.89"/><circle cx="141.7" cy="276.5" r="0.65" fill="#fff" opacity="0.58"/><circle cx="51.1" cy="538.8" r="1.00" fill="hsl(210,80%,85%)" opacity="0.67"/><circle cx="14.0" cy="733.3" r="0.72" fill="hsl(210,80%,85%)" opacity="0.31"/><circle cx="95.3" cy="202.1" r="0.62" fill="hsl(210,80%,85%)" opacity="0.99"/><circle cx="141.1" cy="278.0" r="1.20" fill="hsl(35,90%,80%)" opacity="0.77"/><circle cx="267.9" cy="283.6" r="0.96" fill="#fff" opacity="0.42"/><circle cx="284.0" cy="46.2" r="0.82" fill="#fff" opacity="0.59"/><circle cx="263.0" cy="284.6" r="0.61" fill="hsl(35,90%,80%)" opacity="0.87"/><circle cx="43.9" cy="506.2" r="1.13" fill="hsl(210,80%,85%)" opacity="0.33"/><circle cx="236.4" cy="95.3" r="0.32" fill="hsl(210,80%,85%)" opacity="0.65"/><circle cx="118.4" cy="135.6" r="0.89" fill="hsl(35,90%,80%)" opacity="0.78"/><circle cx="92.2" cy="20.3" r="0.64" fill="hsl(210,80%,85%)" opacity="0.57"/><circle cx="168.9" cy="218.2" r="0.53" fill="#fff" opacity="0.63"/><circle cx="50.4" cy="417.4" r="1.17" fill="#fff" opacity="0.67"/><circle cx="281.5" cy="133.6" r="1.12" fill="hsl(210,80%,85%)" opacity="0.72"/><circle cx="130.3" cy="110.6" r="1.10" fill="#fff" opacity="0.51"/><circle cx="1.1" cy="142.0" r="0.72" fill="hsl(210,80%,85%)" opacity="0.49"/><circle cx="23.3" cy="210.3" r="0.35" fill="hsl(210,80%,85%)" opacity="0.40"/>
</svg>
