<svg xmlns="http://www.w3.org/2000/svg" width="400" height="740" viewBox="0 0 400 740">
<defs><linearGradient id="m" x1="0" y1="0" x2="0" y2="1"><stop offset="0" stop-color="#241640"/><stop offset="1" stop-color="#0e0820"/></linearGradient></defs><path d="M0 740 L0 470.0 L0 480.7 L8 492.6 L16 496.6 L24 494.5 L32 490.0 L40 486.7 L48 485.8 L56 485.6 L64 482.8 L72 474.5 L80 460.8 L88 445.0 L96 432.6 L104 428.6 L112 435.2 L120 450.5 L128 469.3 L136 485.5 L144 494.8 L152 496.5 L160 493.1 L168 488.6 L176 486.1 L184 485.8 L192 485.1 L200 480.7 L208 470.5 L216 455.6 L224 440.2 L232 430.1 L240 429.6 L248 439.5 L256 456.7 L264 475.2 L272 489.5 L280 496.1 L288 495.7 L296 491.5 L304 487.5 L312 485.9 L320 485.8 L328 484.2 L336 478.0 L344 465.9 L352 450.2 L360 436.0 L368 428.8 L376 431.8 L384 444.7 L392 463.0 L400 480.7 L400 740 Z" fill="url(#m)"/>
</svg>
