<svg xmlns="http://www.w3.org/2000/svg" width="400" height="740" viewBox="0 0 400 740">
<defs><linearGradient id="n" x1="0" y1="0" x2="0" y2="1"><stop offset="0" stop-color="#160d2b"/><stop offset="1" stop-color="#05030f"/></linearGradient></defs><path d="M0 740 L0 580.0 L0 593.5 L8 602.6 L16 597.2 L24 589.3 L32 597.1 L40 618.7 L48 634.9 L56 637.0 L64 635.5 L72 637.1 L80 630.5 L88 604.5 L96 570.3 L104 549.4 L112 545.8 L120 544.7 L128 538.2 L136 536.6 L144 547.1 L152 556.9 L160 550.7 L168 534.6 L176 529.2 L184 540.7 L192 555.8 L200 566.5 L208 582.3 L216 611.0 L224 639.2 L232 647.3 L240 636.4 L248 624.9 L256 621.3 L264 615.0 L272 599.9 L280 588.3 L288 592.3 L296 602.3 L304 598.1 L312 577.3 L320 556.5 L328 544.7 L336 532.9 L344 514.7 L352 503.3 L360 514.2 L368 541.0 L376 562.4 L384 571.2 L392 579.3 L400 593.5 L400 740 Z" fill="url(#n)"/><g fill="#2a1b4d"><polygon points="164.321241445989,740 172.71209628214692,671.4864942391806 181.10295111830482,740"/><polygon points="61.8777454094392,740 71.77234657703542,632.7524482983874 81.66694774463164,740"/><polygon points="47.86804915772194,740 60.86164565471077,654.1113400338736 73.8552421516996,740"/><polygon points="178.43589313255433,740 188.71033819099438,601.6858696572883 198.98478324943446,740"/><polygon points="291.46043313269524,740 301.57938159377284,596.5136265365936 311.6983300548505,740"/></g>
</svg>
