<svg xmlns="http://www.w3.org/2000/svg" width="400" height="740" viewBox="0 0 400 740">
<defs><linearGradient id="s" x1="0" y1="0" x2="0" y2="1"><stop offset="0" stop-color="#05030f"/><stop offset=".5" stop-color="#0d0a26"/><stop offset="1" stop-color="#1a0f33"/></linearGradient><radialGradient id="neb" cx=".7" cy=".35" r=".6"><stop offset="0" stop-color="#5b2a8c" stop-opacity=".55"/><stop offset="1" stop-color="#5b2a8c" stop-opacity="0"/></radialGradient><radialGradient id="neb2" cx=".25" cy=".7" r=".5"><stop offset="0" stop-color="#1f6f9c" stop-opacity=".4"/><stop offset="1" stop-color="#1f6f9c" stop-opacity="0"/></radialGradient></defs><rect width="400" height="740" fill="url(#s)"/><rect width="400" height="740" fill="url(#neb)"/><rect width="400" height="740" fill="url(#neb2)"/><circle cx="195.3" cy="734.4" r="1.02" fill="#fff" opacity="0.84"/><circle cx="320.6" cy="731.9" r="1.12" fill="hsl(210,80%,85%)" opacity="0.98"/><circle cx="258.0" cy="668.2" r="0.58" fill="#fff" opacity="0.32"/><circle cx="162.6" cy="121.6" r="1.00" fill="hsl(35,90%,80%)" opacity="0.78"/><circle cx="110.2" cy="114.1" r="0.72" fill="hsl(35,90%,80%)" opacity="0.45"/><circle cx="145.2" cy="719.3" r="0.64" fill="hsl(35,90%,80%)" opacity="0.92"/><circle cx="56.6" cy="667.7" r="1.17" fill="hsl(35,90%,80%)" opacity="0.99"/><circle cx="259.9" cy="521.6" r="0.49" fill="hsl(210,80%,85%)" opacity="0.31"/><circle cx="229.8" cy="674.1" r="0.37" fill="#fff" opacity="0.39"/><circle cx="233.5" cy="604.7" r="1.68" fill="#fff" opacity="0.52"/><circle cx="320.3" cy="479.6" r="1.23" fill="hsl(210,80%,85%)" opacity="0.43"/><circle cx="343.8" cy="300.2" r="0.83" fill="hsl(35,90%,80%)" opacity="0.62"/><circle cx="169.9" cy="110.3" r="0.59" fill="#fff" opacity="0.97"/><circle cx="94.2" cy="278.5" r="1.44" fill="hsl(210,80%,85%)" opacity="0.79"/><circle cx="170.4" cy="153.4" r="1.30" fill="hsl(210,80%,85%)" opacity="0.64"/><circle cx="178.6" cy="36.3" r="0.57" fill="hsl(210,80%,85%)" opacity="0.34"/><circle cx="10.0" cy="15.6" r="0.55" fill="hsl(210,80%,85%)" opacity="0.52"/><circle cx="203.4" cy="12.1" r="1.00" fill="#fff" opacity="0.90"/><circle cx="192.6" cy="252.4" r="0.67" fill="hsl(210,80%,85%)" opacity="0.65"/><circle cx="196.1" cy="707.8" r="1.47" fill="hsl(210,80%,85%)" opacity="0.33"/><circle cx="256.3" cy="520.4" r="1.29" fill="hsl(35,90%,80%)" opacity="0.61"/><circle cx="181.7" cy="179.1" r="0.62" fill="#fff" opacity="0.78"/><circle cx="43.4" cy="254.4" r="1.14" fill="hsl(210,80%,85%)" opacity="0.50"/><circle cx="165.0" cy="434.7" r="1.49" fill="hsl(210,80%,85%)" opacity="0.35"/><circle cx="34.8" cy="322.7" r="1.11" fill="hsl(35,90%,80%)" opacity="0.95"/><circle cx="195.1" cy="349.3" r="0.59" fill="#fff" opacity="0.93"/><circle cx="161.3" cy="113.2" r="0.78" fill="#fff" opacity="0.33"/><circle cx="78.6" cy="92.0" r="1.78" fill="#fff" opacity="0.59"/><circle cx="94.1" cy="164.7" r="1.46" fill="hsl(35,90%,80%)" opacity="0.97"/><circle cx="282.1" cy="484.4" r="1.35" fill="#fff" opacity="0.67"/><circle cx="300.5" cy="738.2" r="0.83" fill="hsl(210,80%,85%)" opacity="0.36"/><circle cx="71.5" cy="371.1" r="1.05" fill="#fff" opacity="0.67"/><circle cx="270.3" cy="178.0" r="1.03" fill="hsl(35,90%,80%)" opacity="0.73"/><circle cx="384.0" cy="457.1" r="0.87" fill="#fff" opacity="0.35"/><circle cx="127.7" cy="264.4" r="1.19" fill="#fff" opacity="0.98"/><circle cx="89.0" cy="114.2" r="1.05" fill="#fff" opacity="0.66"/><circle cx="181.6" cy="602.4" r="1.16" fill="hsl(210,80%,85%)" opacity="0.83"/><circle cx="180.4" cy="376.1" r="1.46" fill="#fff" opacity="0.73"/><circle cx="1.2" cy="57.7" r="1.38" fill="hsl(210,80%,85%)" opacity="0.63"/><circle cx="136.6" cy="177.7" r="1.08" fill="hsl(35,90%,80%)" opacity="0.59"/><circle cx="337.4" cy="108.9" r="1.26" fill="#fff" opacity="0.48"/><circle cx="34.9" cy="142.4" r="0.61" fill="hsl(35,90%,80%)" opacity="0.67"/><circle cx="292.1" cy="384.4" r="1.16" fill="#fff" opacity="0.31"/><circle cx="286.8" cy="461.2" r="0.65" fill="#fff" opacity="0.46"/><circle cx="234.5" cy="684.8" r="1.78" fill="#fff" opacity="0.44"/><circle cx="122.2" cy="231.9" r="1.63" fill="#fff" opacity="0.78"/><circle cx="18.2" cy="580.7" r="0.70" fill="hsl(35,90%,80%)" opacity="0.68"/><circle cx="292.7" cy="266.7" r="0.52" fill="#fff" opacity="0.47"/><circle cx="114.1" cy="441.0" r="0.59" fill="hsl(35,90%,80%)" opacity="0.52"/><circle cx="136.5" cy="432.4" r="0.74" fill="hsl(210,80%,85%)" opacity="0.86"/><circle cx="64.8" cy="653.1" r="1.51" fill="hsl(210,80%,85%)" opacity="0.36"/><circle cx="157.1" cy="216.5" r="1.14" fill="hsl(35,90%,80%)" opacity="0.78"/><circle cx="70.7" cy="431.6" r="1.75" fill="hsl(210,80%,85%)" opacity="0.65"/><circle cx="2.5" cy="62.0" r="0.83" fill="hsl(210,80%,85%)" opacity="0.61"/><circle cx="186.5" cy="627.8" r="0.38" fill="#fff" opacity="0.85"/><circle cx="11.9" cy="408.3" r="0.61" fill="#fff" opacity="0.78"/><circle cx="262.3" cy="617.5" r="1.55" fill="#fff" opacity="0.58"/><circle cx="338.0" cy="266.6" r="0.49" fill="hsl(210,80%,85%)" opacity="0.53"/><circle cx="380.9" cy="598.8" r="1.17" fill="#fff" opacity="0.94"/><circle cx="144.7" cy="96.5" r="0.43" fill="hsl(210,80%,85%)" opacity="0.64"/><circle cx="55.5" cy="55.0" r="1.48" fill="#fff" opacity="0.59"/><circle cx="378.5" cy="100.8" r="0.34" fill="#fff" opacity="0.44"/><circle cx="365.9" cy="686.3" r="0.74" fill="hsl(35,90%,80%)" opacity="0.96"/><circle cx="373.8" cy="380.7" r="1.69" fill="hsl(35,90%,80%)" opacity="0.32"/><circle cx="328.5" cy="414.4" r="0.81" fill="#fff" opacity="0.79"/><circle cx="196.5" cy="150.2" r="1.75" fill="#fff" opacity="0.32"/><circle cx="292.0" cy="691.1" r="1.14" fill="hsl(210,80%,85%)" opacity="0.46"/><circle cx="70.4" cy="643.5" r="1.42" fill="#fff" opacity="0.76"/><circle cx="276.5" cy="395.1" r="0.93" fill="#fff" opacity="0.84"/><circle cx="64.6" cy="108.5" r="1.66" fill="#fff" opacity="0.97"/><circle cx="13.1" cy="233.5" r="1.21" fill="#fff" opacity="0.46"/><circle cx="222.7" cy="391.1" r="1.55" fill="hsl(35,90%,80%)" opacity="0.39"/><circle cx="321.0" cy="262.4" r="0.73" fill="#fff" opacity="0.41"/><circle cx="187.5" cy="677.3" r="1.50" fill="#fff" opacity="1.00"/><circle cx="399.3" cy="481.5" r="1.80" fill="#fff" opacity="0.83"/><circle cx="275.7" cy="96.0" r="1.13" fill="hsl(35,90%,80%)" opacity="0.40"/><circle cx="139.9" cy="691.0" r="1.44" fill="#fff" opacity="0.74"/><circle cx="353.9" cy="428.0" r="0.96" fill="#fff" opacity="0.56"/><circle cx="145.1" cy="407.4" r="1.33" fill="#fff" opacity="0.70"/><circle cx="290.3" cy="81.3" r="0.43" fill="#fff" opacity="0.58"/><circle cx="26.6" cy="130.1" r="0.66" fill="#fff" opacity="0.75"/><circle cx="197.6" cy="551.8" r="1.54" fill="#fff" opacity="0.30"/><circle cx="160.1" cy="423.4" r="0.31" fill="#fff" opacity="0.38"/><circle cx="340.9" cy="203.1" r="1.56" fill="#fff" opacity="0.71"/><circle cx="181.2" cy="61.6" r="0.88" fill="hsl(35,90%,80%)" opacity="0.96"/><circle cx="74.8" cy="397.1" r="1.73" fill="hsl(35,90%,80%)" opacity="0.89"/><circle cx="37.6" cy="84.1" r="1.01" fill="#fff" opacity="0.90"/><circle cx="137.3" cy="303.3" r="1.21" fill="#fff" opacity="0.82"/><circle cx="146.0" cy="678.8" r="1.72" fill="#fff" opacity="0.86"/><circle cx="26.9" cy="35.9" r="0.43" fill="#fff" opacity="0.47"/><circle cx="292.8" cy="475.1" r="1.70" fill="hsl(210,80%,85%)" opacity="0.85"/><circle cx="40.4" cy="690.0" r="1.32" fill="hsl(35,90%,80%)" opacity="0.87"/><circle cx="196.2" cy="163.6" r="1.20" fill="#fff" opacity="0.73"/><circle cx="41.2" cy="36.0" r="0.53" fill="#fff" opacity="0.46"/><circle cx="232.8" cy="233.5" r="0.99" fill="#fff" opacity="0.57"/><circle cx="22.9" cy="140.5" r="0.63" fill="#fff" opacity="0.38"/><circle cx="181.0" cy="195.6" r="0.97" fill="hsl(210,80%,85%)" opacity="0.76"/><circle cx="242.7" cy="363.0" r="1.12" fill="#fff" opacity="0.38"/><circle cx="258.4" cy="729.3" r="1.79" fill="hsl(210,80%,85%)" opacity="0.68"/><circle cx="182.5" cy="67.4" r="0.74" fill="#fff" opacity="0.70"/><circle cx="42.5" cy="455.5" r="0.98" fill="#fff" opacity="0.46"/><circle cx="30.3" cy="243.0" r="1.78" fill="hsl(35,90%,80%)" opacity="0.70"/><circle cx="22.7" cy="236.2" r="0.72" fill="hsl(210,80%,85%)" opacity="0.91"/><circle cx="349.8" cy="675.1" r="0.74" fill="hsl(35,90%,80%)" opacity="0.75"/><circle cx="104.4" cy="336.5" r="0.68" fill="hsl(210,80%,85%)" opacity="0.46"/><circle cx="90.7" cy="329.8" r="0.45" fill="hsl(210,80%,85%)" opacity="0.36"/><circle cx="284.1" cy="508.3" r="1.52" fill="#fff" opacity="0.51"/><circle cx="75.0" cy="496.0" r="0.56" fill="hsl(35,90%,80%)" opacity="0.45"/><circle cx="393.1" cy="39.2" r="1.52" fill="hsl(35,90%,80%)" opacity="0.81"/><circle cx="79.5" cy="585.0" r="0.92" fill="hsl(210,80%,85%)" opacity="0.32"/><circle cx="372.3" cy="452.7" r="0.98" fill="#fff" opacity="0.51"/><circle cx="223.9" cy="260.3" r="0.82" fill="hsl(35,90%,80%)" opacity="0.33"/><circle cx="230.5" cy="267.0" r="0.91" fill="hsl(210,80%,85%)" opacity="0.35"/><circle cx="94.2" cy="131.5" r="0.57" fill="hsl(210,80%,85%)" opacity="0.76"/><circle cx="34.2" cy="559.5" r="1.04" fill="hsl(210,80%,85%)" opacity="0.71"/><circle cx="282.4" cy="549.7" r="1.55" fill="#fff" opacity="0.95"/><circle cx="1.0" cy="53.1" r="1.61" fill="hsl(35,90%,80%)" opacity="0.82"/><circle cx="33.6" cy="281.7" r="0.81" fill="#fff" opacity="0.73"/><circle cx="260.9" cy="56.3" r="1.17" fill="#fff" opacity="0.80"/><circle cx="309.3" cy="342.4" r="0.82" fill="hsl(35,90%,80%)" opacity="0.58"/><circle cx="135.1" cy="279.2" r="0.47" fill="hsl(210,80%,85%)" opacity="0.63"/><circle cx="344.7" cy="294.6" r="1.51" fill="#fff" opacity="0.88"/><circle cx="364.8" cy="639.5" r="1.75" fill="hsl(35,90%,80%)" opacity="0.64"/><circle cx="106.9" cy="372.5" r="1.60" fill="hsl(210,80%,85%)" opacity="0.80"/><circle cx="343.9" cy="693.0" r="0.93" fill="hsl(210,80%,85%)" opacity="0.70"/><circle cx="252.1" cy="391.5" r="1.11" fill="hsl(35,90%,80%)" opacity="0.72"/><circle cx="204.7" cy="21.5" r="1.71" fill="#fff" opacity="0.70"/><circle cx="292.7" cy="416.8" r="1.27" fill="#fff" opacity="0.96"/><circle cx="241.6" cy="413.1" r="1.50" fill="hsl(210,80%,85%)" opacity="0.32"/><circle cx="348.3" cy="593.9" r="1.07" fill="hsl(210,80%,85%)" opacity="0.97"/><circle cx="286.6" cy="495.2" r="1.25" fill="hsl(35,90%,80%)" opacity="0.71"/><circle cx="255.5" cy="508.0" r="1.32" fill="hsl(210,80%,85%)" opacity="0.53"/><circle cx="195.1" cy="489.4" r="0.37" fill="#fff" opacity="0.87"/><circle cx="25.5" cy="333.2" r="1.13" fill="#fff" opacity="0.52"/><circle cx="167.8" cy="92.7" r="0.40" fill="#fff" opacity="0.32"/><circle cx="157.0" cy="737.7" r="1.56" fill="#fff" opacity="0.56"/><circle cx="293.3" cy="146.5" r="1.31" fill="hsl(35,90%,80%)" opacity="0.37"/><circle cx="43.2" cy="558.1" r="1.27" fill="hsl(35,90%,80%)" opacity="0.55"/><circle cx="298.2" cy="133.5" r="1.73" fill="hsl(210,80%,85%)" opacity="0.50"/><circle cx="82.9" cy="290.7" r="1.46" fill="hsl(210,80%,85%)" opacity="0.40"/><circle cx="234.3" cy="394.1" r="1.73" fill="#fff" opacity="0.75"/><circle cx="145.1" cy="328.0" r="1.61" fill="#fff" opacity="0.40"/><circle cx="357.2" cy="653.4" r="1.66" fill="#fff" opacity="0.84"/><circle cx="256.8" cy="735.4" r="1.53" fill="hsl(35,90%,80%)" opacity="0.87"/><circle cx="236.1" cy="659.6" r="0.74" fill="hsl(210,80%,85%)" opacity="0.82"/><circle cx="111.5" cy="8.8" r="1.40" fill="#fff" opacity="0.70"/><circle cx="334.0" cy="661.3" r="0.94" fill="hsl(35,90%,80%)" opacity="0.33"/><circle cx="287.2" cy="168.1" r="0.85" fill="hsl(210,80%,85%)" opacity="0.93"/><circle cx="162.1" cy="539.7" r="0.43" fill="hsl(210,80%,85%)" opacity="0.80"/><circle cx="303.6" cy="665.8" r="0.64" fill="#fff" opacity="0.70"/>
</svg>
