<svg xmlns="http://www.w3.org/2000/svg" width="400" height="740" viewBox="0 0 400 740">
<defs><linearGradient id="f" x1="0" y1="0" x2="0" y2="1"><stop offset="0" stop-color="#8a7c6a"/><stop offset="1" stop-color="#6d5f50"/></linearGradient></defs><path d="M0 740 L0 360.0 L0 372.5 L8 383.8 L16 389.2 L24 389.6 L32 387.4 L40 385.6 L48 386.1 L56 389.4 L64 394.0 L72 397.2 L80 396.0 L88 388.6 L96 374.9 L104 357.2 L112 338.9 L120 324.0 L128 315.4 L136 313.9 L144 318.5 L152 326.4 L160 334.4 L168 340.1 L176 342.5 L184 342.9 L192 343.7 L200 347.5 L208 356.1 L216 369.4 L224 385.2 L232 400.1 L240 410.5 L248 413.7 L256 409.2 L264 398.4 L272 384.5 L280 371.0 L288 360.9 L296 355.1 L304 352.8 L312 351.6 L320 349.0 L328 343.0 L336 333.7 L344 322.9 L352 313.7 L360 309.5 L368 312.4 L376 322.7 L384 338.5 L392 356.4 L400 372.5 L400 740 Z" fill="url(#f)" opacity=".5"/>
</svg>
