<svg xmlns="http://www.w3.org/2000/svg" width="400" height="740" viewBox="0 0 400 740">
<defs><linearGradient id="m" x1="0" y1="0" x2="0" y2="1"><stop offset="0" stop-color="#7a6450"/><stop offset="1" stop-color="#534033"/></linearGradient></defs><g fill="url(#m)"><polygon points="196.7598629820905,740 196.7598629820905,573 209,573 219,573 236.8703595096573,573 236.8703595096573,740"/><polygon points="290.35537762118287,740 290.35537762118287,602 304,602 315,602 334.812325910112,602 334.812325910112,740"/><polygon points="164.48996725701258,740 164.48996725701258,576 175,589 183,576 198.0112675763719,583 198.0112675763719,740"/><polygon points="237.56600032447187,740 237.56600032447187,584 251,584 263,584 283.19742714483175,584 283.19742714483175,740"/><polygon points="119.29011975381994,740 119.29011975381994,581 132,581 142,581 160.2134786780055,581 160.2134786780055,740"/><polygon points="33.49850208195788,740 33.49850208195788,509 44,525 54,509 70.05633909630419,517 70.05633909630419,740"/></g>
</svg>
