<svg xmlns="http://www.w3.org/2000/svg" width="400" height="740" viewBox="0 0 400 740">
<defs><linearGradient id="n" x1="0" y1="0" x2="0" y2="1"><stop offset="0" stop-color="#5a4636"/><stop offset="1" stop-color="#2e2117"/></linearGradient></defs><path d="M0 740 L0 600.0 L0 613.9 L8 619.9 L16 619.6 L24 616.9 L32 615.9 L40 618.4 L48 622.3 L56 623.4 L64 617.7 L72 603.8 L80 584.9 L88 567.1 L96 557.0 L104 558.3 L112 570.4 L120 588.4 L128 605.6 L136 616.8 L144 620.4 L152 618.7 L160 616.2 L168 616.4 L176 619.7 L184 623.2 L192 622.4 L200 613.9 L208 597.8 L216 578.5 L224 562.6 L232 556.1 L240 561.3 L248 576.1 L256 594.5 L264 610.1 L272 618.8 L280 620.2 L288 617.8 L296 615.9 L304 617.2 L312 621.1 L320 623.6 L328 620.5 L336 609.2 L344 591.5 L352 572.5 L360 559.2 L368 556.5 L376 565.4 L384 582.1 L392 600.3 L400 613.9 L400 740 Z" fill="url(#n)"/><g fill="#3e2e20"><rect x="206" y="656" width="40" height="84" rx="3"/><rect x="205" y="630" width="26" height="110" rx="3"/><rect x="33" y="641" width="33" height="99" rx="3"/><rect x="64" y="572" width="38" height="168" rx="3"/><rect x="194" y="655" width="36" height="85" rx="3"/></g>
</svg>
