<svg xmlns="http://www.w3.org/2000/svg" width="400" height="300" viewBox="0 0 400 300">
<defs><filter id="b" x="-20%" y="-20%" width="140%" height="140%"><feGaussianBlur stdDeviation="9"/></filter></defs><g fill="#ffffff" filter="url(#b)"><g opacity="0.34" transform="translate(212,57) scale(0.80)"><ellipse cx="0" cy="0" rx="46" ry="20"/><ellipse cx="34" cy="6" rx="34" ry="16"/><ellipse cx="-32" cy="8" rx="30" ry="14"/></g><g opacity="0.53" transform="translate(67,223) scale(1.34)"><ellipse cx="0" cy="0" rx="46" ry="20"/><ellipse cx="34" cy="6" rx="34" ry="16"/><ellipse cx="-32" cy="8" rx="30" ry="14"/></g><g opacity="0.37" transform="translate(188,83) scale(0.79)"><ellipse cx="0" cy="0" rx="46" ry="20"/><ellipse cx="34" cy="6" rx="34" ry="16"/><ellipse cx="-32" cy="8" rx="30" ry="14"/></g><g opacity="0.33" transform="translate(204,168) scale(0.76)"><ellipse cx="0" cy="0" rx="46" ry="20"/><ellipse cx="34" cy="6" rx="34" ry="16"/><ellipse cx="-32" cy="8" rx="30" ry="14"/></g><g opacity="0.55" transform="translate(49,181) scale(1.08)"><ellipse cx="0" cy="0" rx="46" ry="20"/><ellipse cx="34" cy="6" rx="34" ry="16"/><ellipse cx="-32" cy="8" rx="30" ry="14"/></g><g opacity="0.46" transform="translate(255,213) scale(0.92)"><ellipse cx="0" cy="0" rx="46" ry="20"/><ellipse cx="34" cy="6" rx="34" ry="16"/><ellipse cx="-32" cy="8" rx="30" ry="14"/></g><g opacity="0.26" transform="translate(8,33) scale(0.85)"><ellipse cx="0" cy="0" rx="46" ry="20"/><ellipse cx="34" cy="6" rx="34" ry="16"/><ellipse cx="-32" cy="8" rx="30" ry="14"/></g></g>
</svg>
