<svg xmlns="http://www.w3.org/2000/svg" width="400" height="740" viewBox="0 0 400 740">
<defs><filter id="lb" x="-20%" y="-20%" width="140%" height="140%"><feGaussianBlur stdDeviation="2"/></filter></defs><g filter="url(#lb)" fill="#ffffff"><circle cx="244" cy="303" r="1.8" opacity="0.043"/><circle cx="192" cy="11" r="0.6" opacity="0.071"/><circle cx="382" cy="587" r="1.3" opacity="0.026"/><circle cx="367" cy="147" r="2.5" opacity="0.087"/><circle cx="324" cy="599" r="2.2" opacity="0.041"/><circle cx="232" cy="627" r="2.2" opacity="0.063"/><circle cx="84" cy="469" r="0.6" opacity="0.081"/><circle cx="226" cy="109" r="1.1" opacity="0.082"/><circle cx="35" cy="565" r="0.9" opacity="0.075"/><circle cx="223" cy="456" r="1.0" opacity="0.054"/><circle cx="228" cy="80" r="1.3" opacity="0.090"/><circle cx="85" cy="567" r="1.6" opacity="0.033"/><circle cx="362" cy="377" r="0.8" opacity="0.059"/><circle cx="35" cy="386" r="1.6" opacity="0.028"/><circle cx="130" cy="91" r="1.6" opacity="0.031"/><circle cx="13" cy="108" r="2.2" opacity="0.031"/><circle cx="151" cy="613" r="1.8" opacity="0.079"/><circle cx="136" cy="182" r="2.1" opacity="0.050"/><circle cx="274" cy="616" r="2.3" opacity="0.068"/><circle cx="272" cy="577" r="1.6" opacity="0.054"/><circle cx="249" cy="597" r="1.3" opacity="0.058"/><circle cx="382" cy="492" r="1.3" opacity="0.074"/><circle cx="313" cy="473" r="1.4" opacity="0.085"/><circle cx="145" cy="32" r="2.2" opacity="0.085"/><circle cx="18" cy="482" r="0.8" opacity="0.028"/><circle cx="216" cy="149" r="2.4" opacity="0.055"/><circle cx="27" cy="623" r="1.1" opacity="0.067"/><circle cx="299" cy="94" r="1.0" opacity="0.063"/><circle cx="123" cy="624" r="0.5" opacity="0.054"/><circle cx="203" cy="397" r="2.6" opacity="0.058"/></g>
</svg>
