<svg xmlns="http://www.w3.org/2000/svg" width="400" height="740" viewBox="0 0 400 740">
<defs><linearGradient id="f" x1="0" y1="0" x2="0" y2="1"><stop offset="0" stop-color="#0c5a7a"/><stop offset="1" stop-color="#0a4360"/></linearGradient></defs><path d="M0 740 L0 420.0 L0 429.4 L8 440.4 L16 446.4 L24 447.5 L32 445.5 L40 442.9 L48 441.9 L56 443.4 L64 446.6 L72 449.4 L80 449.4 L88 444.5 L96 434.3 L104 419.9 L112 404.3 L120 390.6 L128 381.8 L136 379.2 L144 382.4 L152 389.3 L160 397.1 L168 403.3 L176 406.7 L184 407.8 L192 408.3 L200 410.6 L208 416.5 L216 426.4 L224 439.1 L232 451.9 L240 461.7 L248 465.9 L256 463.4 L264 455.0 L272 443.0 L280 430.6 L288 420.5 L296 414.3 L304 411.5 L312 410.7 L320 409.4 L328 405.8 L336 399.2 L344 390.8 L352 382.8 L360 378.3 L368 379.3 L376 386.7 L384 399.4 L392 414.8 L400 429.4 L400 740 Z" fill="url(#f)" opacity=".6"/>
</svg>
