<svg xmlns="http://www.w3.org/2000/svg" width="400" height="740" viewBox="0 0 400 740">
<defs><linearGradient id="m" x1="0" y1="0" x2="0" y2="1"><stop offset="0" stop-color="#0a6e6a"/><stop offset="1" stop-color="#075048"/></linearGradient></defs><path d="M0 740 L0 500.0 L0 514.0 L8 523.3 L16 524.4 L24 523.7 L32 527.1 L40 534.1 L48 538.7 L56 533.2 L64 514.9 L72 488.8 L80 464.9 L88 452.8 L96 455.1 L104 467.0 L112 479.9 L120 487.6 L128 490.5 L136 494.5 L144 505.4 L152 523.7 L160 542.8 L168 553.1 L176 548.3 L184 529.6 L192 505.5 L200 486.0 L208 476.7 L216 475.6 L224 476.3 L232 472.9 L240 465.9 L248 461.3 L256 466.8 L264 485.1 L272 511.2 L280 535.1 L288 547.2 L296 544.9 L304 533.0 L312 520.1 L320 512.4 L328 509.5 L336 505.5 L344 494.6 L352 476.3 L360 457.2 L368 446.9 L376 451.7 L384 470.4 L392 494.5 L400 514.0 L400 740 Z" fill="url(#m)" opacity=".85"/><g fill="#0e8a7e" opacity=".7"><path d="M281.92733299542556 740 q-14 -70 4 -120 q18 50 -4 120 Z"/><path d="M273.1891394793937 740 q-14 -70 4 -120 q18 50 -4 120 Z"/><path d="M318.9779998217607 740 q-14 -70 4 -120 q18 50 -4 120 Z"/><path d="M134.42666535471875 740 q-14 -70 4 -120 q18 50 -4 120 Z"/></g>
</svg>
