<svg xmlns="http://www.w3.org/2000/svg" width="400" height="740" viewBox="0 0 400 740">
<defs><linearGradient id="n" x1="0" y1="0" x2="0" y2="1"><stop offset="0" stop-color="#06463f"/><stop offset="1" stop-color="#022824"/></linearGradient></defs><path d="M0 740 L0 580.0 L0 598.2 L8 610.1 L16 610.1 L24 601.0 L32 594.0 L40 597.5 L48 608.7 L56 617.4 L64 617.6 L72 613.2 L80 611.8 L88 614.1 L96 612.0 L104 596.8 L112 570.4 L120 544.2 L128 529.0 L136 525.1 L144 524.8 L152 522.9 L160 523.6 L168 534.8 L176 557.3 L184 581.7 L192 596.2 L200 598.2 L208 595.6 L216 597.8 L224 604.9 L232 609.7 L240 606.9 L248 601.0 L256 601.4 L264 611.7 L272 624.1 L280 627.0 L288 616.2 L296 598.4 L304 583.3 L312 572.4 L320 559.5 L328 540.0 L336 519.2 L344 508.8 L352 515.2 L360 533.0 L368 550.5 L376 561.3 L384 569.4 L392 581.8 L400 598.2 L400 740 Z" fill="url(#n)"/><g fill="#0c5a4e"><path d="M270.33681882095374 740 q-8 -90 6 -150 q14 60 -6 150 Z"/><path d="M314.811229852406 740 q-8 -90 6 -150 q14 60 -6 150 Z"/><path d="M77.56109241282618 740 q-8 -90 6 -150 q14 60 -6 150 Z"/><path d="M256.5539480450349 740 q-8 -90 6 -150 q14 60 -6 150 Z"/><path d="M300.8022786587488 740 q-8 -90 6 -150 q14 60 -6 150 Z"/><path d="M76.09810832706192 740 q-8 -90 6 -150 q14 60 -6 150 Z"/><path d="M215.472471814357 740 q-8 -90 6 -150 q14 60 -6 150 Z"/></g>
</svg>
