<svg xmlns="http://www.w3.org/2000/svg" width="400" height="740" viewBox="0 0 400 740">
<defs><linearGradient id="s" x1="0" y1="0" x2="0" y2="1"><stop offset="0" stop-color="#0a3a66"/><stop offset=".5" stop-color="#0d4f82"/><stop offset="1" stop-color="#0a6b8f"/></linearGradient><linearGradient id="ray" x1="0" y1="0" x2="0" y2="1"><stop offset="0" stop-color="#bfeaff" stop-opacity=".5"/><stop offset="1" stop-color="#bfeaff" stop-opacity="0"/></linearGradient></defs><rect width="400" height="740" fill="url(#s)"/><g fill="url(#ray)"><polygon points="40,0 70,0 120,740 50,740" opacity="0.28"/><polygon points="102,0 132,0 182,740 112,740" opacity="0.35"/><polygon points="164,0 194,0 244,740 174,740" opacity="0.24"/><polygon points="226,0 256,0 306,740 236,740" opacity="0.34"/><polygon points="288,0 318,0 368,740 298,740" opacity="0.37"/><polygon points="350,0 380,0 430,740 360,740" opacity="0.24"/></g>
</svg>
